<svg xmlns="http://www.w3.org/2000/svg" xmlns:xlink="http://www.w3.org/1999/xlink" width="20" height="12" viewBox="0 0 20 12"><defs><path id="f6i5a" d="M1435.81 47.19V45h-1.561v2.19H1432v1.561h2.249V51h1.56v-2.249H1438v-1.56zm-11.462-.377v2.377s2.438-.004 3.434-.004c-.54 1.538-1.374 2.377-3.434 2.377-2.085 0-3.709-1.593-3.709-3.563 0-1.97 1.629-3.563 3.709-3.563 1.104 0 1.815.366 2.467.876.525-.496.481-.565 1.81-1.752a6.55 6.55 0 0 0-4.272-1.561c-3.508 0-6.353 2.687-6.353 6 0 3.312 2.845 6 6.353 6 5.244 0 6.524-4.314 6.097-7.187z"/></defs><g><g transform="translate(-1418 -42)"><use fill="#354052" xlink:href="#f6i5a"/></g></g></svg>