<svg xmlns="http://www.w3.org/2000/svg" xmlns:xlink="http://www.w3.org/1999/xlink" width="16" height="16" viewBox="0 0 16 16"><defs><path id="bveba" d="M1468 50a2 2 0 1 1 .001-4.001A2 2 0 0 1 1468 50zm0-6c-2.207 0-4 1.792-4 4s1.793 4 4 4 4-1.792 4-4-1.793-4-4-4zm4 1a1 1 0 1 0 0-2 1 1 0 0 0 0 2zm1.955 5.955c-.034.712-.153 1.101-.254 1.356-.13.34-.294.587-.549.841a2.289 2.289 0 0 1-.841.549c-.26.101-.644.22-1.356.254-.774.034-1 .045-2.955.045s-2.186-.006-2.955-.045c-.712-.034-1.101-.153-1.356-.254a2.268 2.268 0 0 1-.841-.549 2.285 2.285 0 0 1-.549-.841c-.101-.26-.22-.644-.254-1.356-.034-.774-.045-1.006-.045-2.955s.006-2.187.045-2.955c.034-.712.153-1.102.254-1.356a2.27 2.27 0 0 1 .549-.842c.254-.254.497-.412.841-.548.26-.101.644-.22 1.356-.254.774-.034 1.006-.045 2.955-.045 1.95 0 2.186.006 2.955.045.712.034 1.101.153 1.356.254.339.13.587.294.841.548.255.255.413.497.549.842.101.26.22.644.254 1.356.034.774.045 1.006.045 2.955 0 1.95-.011 2.186-.045 2.955zm1.625-8.198a3.904 3.904 0 0 0-.922-1.415 3.911 3.911 0 0 0-1.415-.922c-.507-.198-1.095-.333-1.942-.37-.853-.037-1.125-.05-3.301-.05s-2.448.006-3.301.05c-.854.037-1.435.172-1.942.37a3.91 3.91 0 0 0-1.415.922c-.446.444-.718.89-.922 1.415-.197.507-.333 1.095-.37 1.942-.038.853-.05 1.125-.05 3.3 0 2.178.006 2.45.05 3.302.037.854.173 1.435.37 1.941.204.526.476.971.922 1.417.445.445.89.717 1.415.92.507.199 1.095.334 1.942.371.853.038 1.125.05 3.301.05s2.448-.006 3.301-.05c.854-.037 1.435-.172 1.942-.37.525-.204.97-.476 1.415-.921.446-.446.718-.89.922-1.417.197-.506.334-1.093.37-1.94.038-.854.05-1.125.05-3.302 0-2.176-.006-2.448-.05-3.301-.036-.854-.173-1.435-.37-1.942z"/></defs><g><g transform="translate(-1460 -40)"><use fill="#354052" xlink:href="#bveba"/></g></g></svg>