<svg xmlns="http://www.w3.org/2000/svg" xmlns:xlink="http://www.w3.org/1999/xlink" width="16" height="13" viewBox="0 0 16 13"><defs><path id="a1t2a" d="M1357 43.538a6.519 6.519 0 0 1-1.886.517 3.295 3.295 0 0 0 1.444-1.815 6.56 6.56 0 0 1-2.084.796 3.283 3.283 0 0 0-2.397-1.036 3.282 3.282 0 0 0-3.197 4.03 9.321 9.321 0 0 1-6.767-3.43 3.282 3.282 0 0 0 1.016 4.382 3.278 3.278 0 0 1-1.486-.41v.041a3.284 3.284 0 0 0 2.632 3.218 3.315 3.315 0 0 1-1.482.057 3.287 3.287 0 0 0 3.066 2.28 6.587 6.587 0 0 1-4.859 1.359 9.301 9.301 0 0 0 5.032 1.473c6.037 0 9.34-5 9.34-9.337 0-.142-.004-.285-.01-.425a6.655 6.655 0 0 0 1.638-1.7z"/></defs><g><g transform="translate(-1341 -42)"><use fill="#354052" xlink:href="#a1t2a"/></g></g></svg>